PathFileType	4	(X/Y/Z)	C:\Users\avatar\Documents\avatar\mocap1\10002-20130731010438-Unnamed.trc
DataRate	CameraRate	NumFrames	NumMarkers	Units	OrigDataRate	OrigDataStartFrame	OrigNumFrames
400.00	400.00	      9	0	mm	400.00	985	      1313
Frame#	Time	
		

985	2.460	-825.91956	729.02155	237.93892							-237.44389	1001.69952	336.52209	-238.16158	50.33730	305.29990	416.59964	1659.76343	539.81451	-504.11472	-287.47537	352.44339	456.48721	1221.07617	764.63586				-672.39038	981.01801	628.73279							-93.01990	140.50459	66.66470				689.60791	1497.89832	772.73981	-657.95923	1043.57214	1.34668	-421.19861	1081.94678	291.80774	-399.25854	209.77176	427.24503	-439.48004	237.24121	545.31812	-697.31897	223.05931	-52.66423	419.77573	1170.05896	210.91260				-162.84775	1548.10217	373.79837	-385.79572	1310.72156	334.59555	
986	2.463				-240.02962	49.37561	304.83844	-241.35690	1001.81323	338.93756													459.11243	1220.54810	764.22791	-36.03817	1172.96790	101.06426				-74.20524	1243.25500	145.38763	-372.64597	1307.66895	157.97119	-96.14273	141.01314	65.31083	-189.02295	1516.94373	332.89996	689.75635	1497.37207	773.49298				-417.74106	1082.41394	295.55283	-393.03964	208.84966	429.01767	-431.98999	236.55147	546.74976	-697.40393	223.00690	-52.89709				-139.70561	1002.89667	218.15651				-385.76529	1311.93835	338.33624	-712.43890	-622.56567	524.57269	-14.11297	1033.10010	133.36711	
987	2.465	-239.59856	49.42953	305.08133							-245.08871	1000.73151	341.14307	47.86976	960.00641	494.32147	527.94879	1220.70337	276.84598	-34.04144	1175.44702	100.57418	461.78000	1219.61035	763.14545				-161.06241	1549.18884	380.30551							-99.17862	141.55188	64.45894				689.72083	1496.86426	773.84943	-371.47940	1309.00854	159.00749	-421.61670	1083.51501	298.73349	-390.39804	208.67352	429.81421	-428.43274	236.03624	547.74493	-697.93652	222.94881	-54.57769	-186.52544	1518.46155	335.67056				-138.20132	1005.04211	219.96016	-383.91074	1312.79163	341.66943				-16.36276	1035.57715	130.51189	
988	2.467				-247.78683	1001.01965	342.30081	525.29724	1219.95105	271.42966																-161.32961	1548.77930	382.66339				-208.82339	187.44518	464.65320	173.08153	1682.73462	435.15219	-102.48785	141.91696	63.10382	-17.06633	1177.74414	95.76086	689.71490	1496.30273	773.86475				-419.14716	1084.42786	303.38678				-423.43045	235.47856	548.43915	-697.88208	223.32967	-55.42339				18.56344	1242.72473	133.41800				-383.99051	1313.82104	345.92386	-93.94770	135.76013	52.83650	-19.46747	1036.95813	127.92302	-253.41641	189.06111	410.58820	
989	2.470	-229.22173	52.30570	309.22351							-251.09177	1000.79724	343.57803	-1298.97229	1268.14966	220.13295	524.38580	1221.72583	262.86676	-44.07487	1173.20654	89.17934	-214.85011	1315.19788	202.16809				-205.00156	186.84117	463.61469							-105.93987	141.80299	62.05539							169.25655	1683.53882	434.56876	-417.69748	1085.18323	305.79562	-96.19062	138.52321	52.19389	-415.91254	234.34303	549.94763													-384.95154	1314.10461	350.38126				-21.61906	1039.26575	124.73937	
990	2.473				-227.67593	52.22887	310.50784	140.96797	978.54181	505.95197																19.59785	1249.03845	133.85432				-1300.41211	1266.64771	221.54408	-216.44046	1470.28223	398.60022	-109.54982	142.28157	60.59649	-102.67287	1219.03870	123.38891	-589.90387	1012.64368	257.69659				-415.71841	1086.81458	309.88458				-407.46564	233.28842	551.75287	-214.47618	1316.62500	204.47206	135.98117	1405.63892	651.89307	490.43347	1214.58606	770.61938	-201.27055	186.24893	462.98367	-384.05145	1314.74866	353.78751	-257.03384	1208.33215	213.57550	-24.32550	1041.45813	121.56992	186.04741	1684.83643	441.25272	-152.24211	1549.31677	390.04865	-326.26620	1128.15796	245.61719	-100.19174	137.97572	50.31387	
991	2.475	-227.05309	51.74495	311.10059							140.28482	976.37939	501.88504	-262.69339	153.84286	443.59012	-1284.18750	1267.04565	227.42133	-587.86639	1012.84558	261.24594	139.20604	1405.40039	651.76691				-253.71034	1211.22827	213.92770							-113.88702	141.52263	58.83175							184.54657	1685.33521	441.52991				499.61267	1126.27820	454.52524	-404.09619	232.75587	552.46307													-380.72638	1316.17261	357.82126										-147.40051	1550.01160	393.67200							-1311.61511	222.02223	43.59878	
992	2.477	-225.71989	51.74419	311.67496	139.80247	974.38147	498.83911	-190.69122	1024.09302	509.62463																-258.66928	153.11740	443.45459				-1270.19043	1267.91626	233.10464	-327.90967	1388.47913	367.08017	-117.54342	141.84694	57.31943	-584.83307	1013.26105	264.26074	186.55820	1687.02759	442.90811				497.79297	1128.21338	454.16928				-397.37479	231.39229	554.17877													-378.94870	1317.11829	361.93759																			-1307.50598	221.25089	46.79173	
993	2.480	-224.29370	52.09029	312.63065							139.94281	972.77423	494.95139	-186.56409	1024.38757	510.66431	-1265.79553	1267.13708	236.23665	-7.90704	1227.98193	117.48713	-327.80280	1389.57996	369.51041				577.82086	1421.55957	781.57825							-121.36689	141.95056	55.96497							-582.15570	1013.02612	267.42618				-184.37259	1090.68103	272.71860	-390.06189	230.32109	555.63226	-368.56445	204.52625	440.43893	184.90076	1688.10034	443.15836	494.61755	1128.95850	454.86844				-380.22382	1318.22888	365.95346																			-1303.42310	220.41885	49.16886	
